# xmcd CD database file
#
# Track frame offsets:
#	150
#	12785
#	31647
#	45784
#	59801
#	98028
#	109195
#	135974
#	149551
#	159112
#	175592
#	186362
#	203395
#
# Disc length: 2735 seconds
#
# Revision: 0
# Processed by: cddbd v1.5.2PL0 Copyright (c) Steve Scherf et al.
# Submitted via: CDex 1.51
#
DISCID=990aad0d
DTITLE=National Parks Players - Spirit of Wyoming
DYEAR=2003
DGENRE=New Age
TTITLE0=Whisper
TTITLE1=Midnight Ride
TTITLE2=A Mountain Spring
TTITLE3=Awakening
TTITLE4=Leaf in Stream
TTITLE5=Summer Solstice
TTITLE6=Mirasol
TTITLE7=Wonderous Sky
TTITLE8=Sacred Journey
TTITLE9=Moss Covered Banks
TTITLE10=Spellbound
TTITLE11=Moonlight
TTITLE12=Evil Copy Protection Track
EXTD=YEAR: 2003
EXTT0=
EXTT1=
EXTT2=
EXTT3=
EXTT4=
EXTT5=
EXTT6=
EXTT7=
EXTT8=
EXTT9=
EXTT10=
EXTT11=
EXTT12=
PLAYORDER=
